<?xml version="1.0" encoding="UTF-8"?>
<svg id="katman_1" data-name="katman 1" xmlns="http://www.w3.org/2000/svg" viewBox="0 0 93.88 31.17">
  <defs>
    <style>
      .cls-1 {
        fill: #fff;
      }
    </style>
  </defs>
  <g>
    <path class="cls-1" d="M31.26,18.06c-.06-.21-2.75-2.87-3.06-3.08-.52-.36-1.14-.47-1.76-.34-1.02.21-1.52,1.6-1.15,2.53.17.43,2.52,2.86,2.96,3.17.25.17.48.28.8.18.14-.04,2.03-1.91,2.12-2.07.09-.15.13-.21.08-.39ZM23.04,16.86c-.57-.44-.96-.62-1.71-.49-.55.1-1.14.6-1.34,1.11-.34.85-.1,1.42.44,2.09.69.85,3.53,3.77,4.35,4.34.27.19.4.28.74.13.21-.09,2.2-2.11,2.23-2.27.02-.07.01-.12-.03-.18l-4.68-4.73ZM21.24,22.13c-.57-.43-1.02-.58-1.76-.44-1.15.21-1.67,1.57-1.22,2.6.17.39,2.52,2.81,2.93,3.1.25.17.48.28.8.18.14-.04,2.03-1.92,2.12-2.07.09-.16.11-.18.06-.37-.07-.22-2.6-2.75-2.93-3ZM13.38,5.46c1.7,1.23,3.44,3.78,5.16,5.17,1.2.98,1.99.76,3.07-.2.31-.28,1.05-.88.77-1.29C18.19,5.57,15.06-.42,8.76.02,1.4.53-2.56,8.94,1.85,14.95c.25.34,1.84,2.13,2.1,2.2.15.04.28.02.39-.08L13.53,7.86c.39-.85-1.76-1.46-1.12-2.35.29-.41.62-.32.97-.06ZM18.15,26.92c-1.26.03-2.06,1.21-1.76,2.42.12.48,1.34,1.87,1.84,1.84.33-.02,2.48-2.16,2.48-2.4-.52-.78-1.54-1.87-2.56-1.85Z"/>
    <path class="cls-1" d="M34.17,15.41c-.24.29-1.38,1.51-1.62,1.65-.15.09-.21.13-.39.08-.34-.1-2.64-2.74-3.25-3.2-1.41-1.05-3.4-.77-4.43.66-.27.37-.32.79-.64,1.11-.55-.08-.97-.52-1.53-.59-3.04-.42-4.75,2.72-3.01,5.14-.29.35-.78.39-1.17.68-.9.66-1.35,1.7-1.28,2.82.04.61.39,1.03.36,1.58-1.03.75-2.49,2.92-3.56,3.4-1.79.78-3.49-1.3-2.07-3.09,1.44-1.81,3.74-3.46,5.27-5.26.51-.68-.3-1.39-.92-.82l-7.16,7.15c-1.86,1.33-4.03-.91-2.59-2.69l8.94-8.95c.36-.73-.13-1.24-.88-.88l-7.05,7.06c-1.69,1.59-4.21-.48-2.86-2.45l10.14-10.11.49.08c1.86,1.61,3.57,4.85,6.49,3.33.48-.25,2.08-1.75,2.39-2.21.16-.24.32-.48.17-.76l-4.72-4.8c-.11-.11-.12-.24-.08-.39.03-.11,1.32-1.39,1.52-1.56C22.33,1.02,24.34.15,26.44.02c8.15-.5,12.99,9.04,7.73,15.4Z"/>
  </g>
  <g>
    <path class="cls-1" d="M47.4,17.96l2.18,1.01c-.75,1.41-2.12,2.59-4.16,2.77l-.34.79c.2-.14.45-.2.71-.2.73,0,1.33.56,1.33,1.37,0,1.07-1.01,1.7-2.2,1.7-.95,0-1.76-.3-2.18-.63l.49-1.03c.5.4,1.07.59,1.6.59s1.03-.22,1.03-.67c0-.3-.2-.49-.57-.49-.26,0-.48.12-.63.28l-.91-.51.43-1.21c-3.05-.28-5.25-2.51-5.25-5.64,0-3.36,2.53-5.68,5.92-5.68,2.36,0,3.9,1.27,4.71,2.77l-2.18,1.05c-.47-.87-1.4-1.52-2.53-1.52-1.88,0-3.27,1.44-3.27,3.38s1.38,3.39,3.27,3.39c1.13,0,2.1-.63,2.53-1.51Z"/>
    <path class="cls-1" d="M49.54,16.73c0-2.71,1.9-5.01,5.05-5.01s5.07,2.3,5.07,5.01-1.9,5.03-5.07,5.03-5.05-2.3-5.05-5.03ZM51.16,9.19c0-.73.59-1.33,1.35-1.33s1.33.59,1.33,1.33-.59,1.35-1.33,1.35-1.35-.59-1.35-1.35ZM57.04,16.73c0-1.48-.89-2.77-2.45-2.77s-2.43,1.29-2.43,2.77.87,2.79,2.43,2.79,2.45-1.29,2.45-2.79ZM55.34,9.19c0-.73.61-1.33,1.34-1.33s1.35.59,1.35,1.33-.61,1.35-1.35,1.35-1.34-.59-1.34-1.35Z"/>
    <path class="cls-1" d="M60.11,21.52v-1.88l4.32-5.48h-4.32v-2.2h7.72v1.82l-4.37,5.54h4.45v2.2h-7.8Z"/>
    <path class="cls-1" d="M75.47,21.52v-1.21c-.65.73-1.8,1.44-3.37,1.44-2.1,0-3.09-1.15-3.09-3.01v-6.79h2.51v5.8c0,1.33.69,1.76,1.76,1.76.97,0,1.74-.53,2.18-1.09v-6.47h2.51v9.56h-2.51ZM70.06,9.19c0-.73.59-1.33,1.34-1.33s1.33.59,1.33,1.33-.59,1.35-1.33,1.35-1.34-.59-1.34-1.35ZM74.24,9.19c0-.73.61-1.33,1.34-1.33s1.35.59,1.35,1.33-.61,1.35-1.35,1.35-1.34-.59-1.34-1.35Z"/>
    <path class="cls-1" d="M91.34,21.52v-6.04c0-.89-.4-1.52-1.43-1.52-.89,0-1.62.59-1.98,1.11v6.45h-2.53v-6.04c0-.89-.39-1.52-1.42-1.52-.87,0-1.6.59-1.98,1.13v6.43h-2.51v-9.56h2.51v1.25c.4-.57,1.66-1.48,3.13-1.48s2.3.65,2.65,1.74c.55-.87,1.82-1.74,3.29-1.74,1.76,0,2.81.93,2.81,2.89v6.91h-2.53Z"/>
    <g>
      <path class="cls-1" d="M61.69,29.97v-.71c-.37.49-.97.83-1.63.83-1.3,0-2.22-.98-2.22-2.6s.93-2.61,2.22-2.61c.64,0,1.24.31,1.63.84v-.72h.93v4.97h-.93ZM61.69,26.44c-.26-.4-.81-.73-1.38-.73-.93,0-1.5.74-1.5,1.78s.58,1.78,1.5,1.78c.57,0,1.12-.32,1.38-.72v-2.11Z"/>
      <path class="cls-1" d="M64.11,28.64c.34.37,1,.71,1.67.71s1.07-.29,1.07-.71c0-.49-.57-.66-1.2-.8-.84-.2-1.83-.42-1.83-1.49,0-.79.68-1.47,1.89-1.47.85,0,1.47.31,1.89.71l-.41.65c-.29-.35-.84-.61-1.47-.61s-1.02.25-1.02.65c0,.43.54.58,1.15.72.86.2,1.89.43,1.89,1.57,0,.85-.7,1.52-2.01,1.52-.83,0-1.56-.26-2.07-.77l.44-.68Z"/>
      <path class="cls-1" d="M68.93,28.64c.34.37,1,.71,1.67.71s1.07-.29,1.07-.71c0-.49-.57-.66-1.2-.8-.84-.2-1.83-.42-1.83-1.49,0-.79.68-1.47,1.89-1.47.85,0,1.47.31,1.89.71l-.41.65c-.29-.35-.84-.61-1.47-.61s-1.02.25-1.02.65c0,.43.54.58,1.15.72.86.2,1.89.43,1.89,1.57,0,.85-.7,1.52-2.01,1.52-.83,0-1.56-.26-2.07-.77l.44-.68Z"/>
      <path class="cls-1" d="M73.6,23.57c0-.33.28-.6.6-.6s.6.27.6.6-.27.59-.6.59-.6-.26-.6-.59ZM73.74,29.97v-4.97h.93v4.97h-.93Z"/>
      <path class="cls-1" d="M76.15,28.64c.34.37,1,.71,1.67.71s1.07-.29,1.07-.71c0-.49-.57-.66-1.2-.8-.84-.2-1.83-.42-1.83-1.49,0-.79.68-1.47,1.89-1.47.85,0,1.47.31,1.89.71l-.41.65c-.29-.35-.84-.61-1.47-.61s-1.02.25-1.02.65c0,.43.54.58,1.15.72.86.2,1.89.43,1.89,1.57,0,.85-.7,1.52-2.01,1.52-.83,0-1.56-.26-2.07-.77l.44-.68Z"/>
      <path class="cls-1" d="M81.14,28.86v-3.06h-.82v-.81h.82v-1.36h.93v1.36h1.01v.81h-1.01v2.85c0,.35.16.61.48.61.22,0,.41-.09.5-.2l.24.7c-.2.19-.48.32-.97.32-.78,0-1.18-.44-1.18-1.22Z"/>
      <path class="cls-1" d="M87.18,29.97v-.55c-.39.43-.96.67-1.63.67-.82,0-1.73-.56-1.73-1.65s.9-1.63,1.73-1.63c.67,0,1.25.22,1.63.66v-.82c0-.62-.5-.99-1.21-.99-.57,0-1.05.22-1.49.66l-.4-.64c.56-.55,1.24-.81,2.04-.81,1.08,0,2,.47,2,1.74v3.35h-.93ZM87.18,28.03c-.28-.37-.76-.57-1.28-.57-.67,0-1.14.4-1.14.99s.47.99,1.14.99c.51,0,1-.2,1.28-.57v-.84Z"/>
      <path class="cls-1" d="M92.94,29.97v-3.18c0-.82-.42-1.09-1.06-1.09-.58,0-1.1.35-1.37.72v3.55h-.93v-4.97h.93v.7c.33-.4.99-.82,1.76-.82,1.05,0,1.6.56,1.6,1.61v3.49h-.93Z"/>
    </g>
  </g>
</svg>